<svg xmlns="http://www.w3.org/2000/svg" viewBox="0 0 902 854" role="img" aria-label="Единый кабинет и три подключённых проекта"><defs><linearGradient id="wireLeft"><stop stop-color="#ff9a16"/><stop offset="1" stop-color="#00e7f2"/></linearGradient><linearGradient id="wireRight"><stop stop-color="#00e7f2"/><stop offset="1" stop-color="#ff9a16"/></linearGradient><linearGradient id="wireDown" x1="0" y1="0" x2="0" y2="1"><stop stop-color="#00e7f2"/><stop offset="1" stop-color="#ff9a16"/></linearGradient></defs><g fill="none" stroke-width="2"><path d="M218 369H247" stroke="url(#wireLeft)"/><path d="M578 369H651" stroke="url(#wireRight)"/><path d="M412 616V647" stroke="url(#wireDown)"/></g><g><circle cx="218" cy="369" r="4" fill="#ff9a16"/><circle cx="247" cy="369" r="4" fill="#00e7f2"/><circle cx="578" cy="369" r="4" fill="#00e7f2"/><circle cx="651" cy="369" r="4" fill="#ff9a16"/><circle cx="412" cy="616" r="4" fill="#00e7f2"/><circle cx="412" cy="647" r="4" fill="#ff9a16"/></g><svg x="246" y="149" width="332" height="467" viewBox="0 0 332 467" overflow="visible">
                <defs>
                  <linearGradient id="console-border" x1="0" y1="0" x2="332" y2="467" gradientUnits="userSpaceOnUse"><stop stop-color="#00e7f2"/><stop offset=".58" stop-color="#70f2fb"/><stop offset=".8" stop-color="#f7ead1"/><stop offset="1" stop-color="#ff9a16"/></linearGradient>
                  <linearGradient id="console-fill" x1="48" y1="22" x2="283" y2="449" gradientUnits="userSpaceOnUse"><stop stop-color="#071a26"/><stop offset=".55" stop-color="#04111a"/><stop offset="1" stop-color="#02080e"/></linearGradient>
                  <linearGradient id="console-bar" x1="0" y1="0" x2="0" y2="1"><stop stop-color="#62f8ff"/><stop offset="1" stop-color="#00abc1"/></linearGradient>
                  <filter id="console-glow" x="-30" y="-30" width="392" height="527" filterUnits="userSpaceOnUse"><feGaussianBlur stdDeviation="7"/></filter>
                  <filter id="console-dot-glow" x="-12" y="-12" width="24" height="24"><feGaussianBlur stdDeviation="2.5"/></filter>
                </defs>
                <rect x="3" y="3" width="326" height="461" rx="18" fill="none" stroke="#00e7f2" stroke-width="4" opacity=".24" filter="url(#console-glow)"/>
                <rect x="1" y="1" width="330" height="465" rx="18" fill="url(#console-fill)" stroke="url(#console-border)" stroke-width="1.6"/>
                <rect x="4" y="4" width="324" height="459" rx="15" fill="none" stroke="#d7fbff" stroke-opacity=".58"/>
                <text x="166" y="43" fill="#14e7f1" font-family="Inter,Arial,sans-serif" font-size="19" font-weight="900" text-anchor="middle">ЕДИНЫЙ КАБИНЕТ</text>
                <rect x="19" y="61" width="294" height="388" rx="10" fill="#020b12" fill-opacity=".8" stroke="#00dce9" stroke-opacity=".58"/>
                <g fill="#0fe4ef"><rect x="37" y="79" width="11" height="11" rx="1"/><rect x="54" y="79" width="11" height="11" rx="1"/><rect x="37" y="96" width="11" height="11" rx="1"/><rect x="54" y="96" width="11" height="11" rx="1"/></g>
                <g><circle cx="287" cy="85" r="1.6" fill="#294651"/><circle cx="293" cy="85" r="1.6" fill="#294651"/><circle cx="299" cy="85" r="1.8" fill="#ff9a16"/></g>
                <g transform="translate(166 201)" fill="none" stroke="#00dce9">
                  <path d="M-113 0H113M0-112V112" stroke-opacity=".18"/>
                  <circle r="106" stroke-opacity=".27"/><circle r="87" stroke-opacity=".31"/><circle r="69" stroke-opacity=".34"/><circle r="52" stroke-opacity=".36"/><circle r="35" stroke-opacity=".38"/>
                  <circle cx="-76" cy="-71" r="2.7" fill="#00e7f2" stroke="none"/><circle cx="74" cy="-87" r="2.7" fill="#00e7f2" stroke="none"/><circle cx="96" cy="1" r="2.7" fill="#ff9a16" stroke="none"/><circle cx="0" cy="61" r="2.7" fill="#00e7f2" stroke="none"/><circle cx="-74" cy="0" r="2.7" fill="#00e7f2" stroke="none"/><circle cx="66" cy="70" r="2.7" fill="#00e7f2" stroke="none"/>
                </g>
                <g fill="url(#console-bar)"><rect x="137" y="199" width="13" height="29"/><rect x="155" y="185" width="13" height="43"/><rect x="173" y="171" width="13" height="57"/></g>
                <rect x="27" y="309" width="278" height="74" rx="6" fill="#031018" stroke="#00dce9" stroke-opacity=".25"/><path d="M218 309v74" stroke="#1c5260" stroke-opacity=".58"/>
                <g stroke-linecap="round"><path d="M40 331h12" stroke="#11e7f1" stroke-width="6"/><path d="M40 349h12" stroke="#11e7f1" stroke-width="6"/><path d="M40 367h12" stroke="#ff9a16" stroke-width="6"/><path d="M66 331h76M66 349h115M66 367h115" stroke="#173847" stroke-width="6"/></g>
                <g transform="translate(261 346)"><circle r="27" fill="#08222d" stroke="#00dce9" stroke-opacity=".5"/><path d="M0 0V-27A27 27 0 0 1 26 7Z" fill="#16dce9"/><path d="M0 0 26 7A27 27 0 0 1 9 25Z" fill="#0b6980"/><path d="M0 0 9 25A27 27 0 0 1-27-2Z" fill="#123747"/><path d="M0 0-27-2A27 27 0 0 1 0-27Z" fill="#0a9ab0"/><path d="M0-27V0L26 7" fill="none" stroke="#031018" stroke-width="1.2"/></g>
                <rect x="27" y="390" width="278" height="51" rx="5" fill="#031018" stroke="#00dce9" stroke-opacity=".24"/><g stroke="#00dce9" stroke-opacity=".07"><path d="M35 403h262M35 415h262M35 427h262"/></g>
                <polyline points="40,430 69,417 99,423 130,406 162,424 195,408 228,421 286,397" fill="none" stroke="#0de6f0" stroke-width="2" stroke-linecap="round" stroke-linejoin="round"/>
                <g fill="#0de6f0"><circle cx="40" cy="430" r="2.5"/><circle cx="69" cy="417" r="2.5"/><circle cx="99" cy="423" r="2.5"/><circle cx="130" cy="406" r="2.5"/><circle cx="162" cy="424" r="2.5"/><circle cx="195" cy="408" r="2.5"/><circle cx="228" cy="421" r="2.5"/></g><circle cx="286" cy="397" r="5" fill="#ff9a16" opacity=".35" filter="url(#console-dot-glow)"/><circle cx="286" cy="397" r="3" fill="#ff9a16"/>
              </svg><svg x="20" y="272" width="188" height="255" viewBox="0 0 188 255" overflow="visible" transform="rotate(2.5 114 399.5)">
                <defs><linearGradient id="project-one-border" x1="0" y1="0" x2="188" y2="255" gradientUnits="userSpaceOnUse"><stop stop-color="#59f5fd"/><stop offset=".7" stop-color="#16cbd8"/><stop offset="1" stop-color="#ff9a16"/></linearGradient><linearGradient id="project-one-fill" x1="20" y1="10" x2="170" y2="246" gradientUnits="userSpaceOnUse"><stop stop-color="#071a24"/><stop offset="1" stop-color="#02090f"/></linearGradient><filter id="project-one-glow" x="-15" y="-15" width="218" height="285" filterUnits="userSpaceOnUse"><feGaussianBlur stdDeviation="5"/></filter></defs>
                <rect x="2" y="2" width="184" height="251" rx="14" fill="none" stroke="#00e7f2" stroke-opacity=".22" stroke-width="3" filter="url(#project-one-glow)"/><rect x=".8" y=".8" width="186.4" height="253.4" rx="14" fill="url(#project-one-fill)" stroke="url(#project-one-border)" stroke-width="1.4"/>
                <g transform="translate(30 37)" fill="none" stroke="#11e7f1" stroke-width="1.3"><circle r="16" stroke-opacity=".45"/><circle r="10"/><path d="M-10 0h20M0-10a15 15 0 0 1 0 20M0-10a15 15 0 0 0 0 20"/></g><text x="54" y="43" fill="#f4f5f6" font-family="Inter,Arial,sans-serif" font-size="16" font-weight="800">Проект 01</text><g fill="#10e7f1"><circle cx="164" cy="28" r="2"/><circle cx="171" cy="28" r="2"/><circle cx="178" cy="28" r="2"/></g>
                <rect x="54" y="60" width="94" height="6" rx="3" fill="#0e2c3a"/><rect x="54" y="60" width="61" height="6" rx="3" fill="#0be5ef"/>
                <rect x="15" y="82" width="158" height="82" rx="3" fill="#031018" stroke="#00dce9" stroke-opacity=".28"/><g stroke="#00dce9" stroke-opacity=".07"><path d="M20 103h148M20 124h148M20 145h148"/></g><polyline points="24,148 48,128 68,140 91,119 114,137 139,116 166,99" fill="none" stroke="#0ce6f0" stroke-width="2.1" stroke-linecap="round" stroke-linejoin="round"/><g fill="#0ce6f0"><circle cx="24" cy="148" r="2.5"/><circle cx="48" cy="128" r="2.5"/><circle cx="68" cy="140" r="2.5"/><circle cx="91" cy="119" r="2.5"/><circle cx="114" cy="137" r="2.5"/><circle cx="139" cy="116" r="2.5"/></g><circle cx="166" cy="99" r="5" fill="#ff9a16" opacity=".22"/><circle cx="166" cy="99" r="3" fill="#ff9a16"/>
                <path d="M15 174h158" stroke="#00dce9" stroke-opacity=".25"/><g stroke-linecap="round"><path d="M23 188h10" stroke="#0de7f1" stroke-width="6"/><path d="M23 207h10" stroke="#0de7f1" stroke-width="6"/><path d="M23 226h10" stroke="#ff9a16" stroke-width="6"/><path d="M41 188h58M41 207h78M41 226h72" stroke="#173847" stroke-width="6"/></g><g fill="#0bc6d6"><rect x="127" y="222" width="6" height="18"/><rect x="139" y="213" width="6" height="27"/><rect x="151" y="201" width="6" height="39"/><rect x="163" y="188" width="6" height="52"/></g>
              </svg><svg x="657" y="270" width="218" height="276" viewBox="0 0 218 276" overflow="visible" transform="rotate(-3 766 408)">
                <defs><linearGradient id="project-two-border" x1="0" y1="0" x2="218" y2="276" gradientUnits="userSpaceOnUse"><stop stop-color="#55f3fc"/><stop offset=".64" stop-color="#d7f8f8"/><stop offset="1" stop-color="#ff9a16"/></linearGradient><linearGradient id="project-two-fill" x1="24" y1="12" x2="195" y2="264" gradientUnits="userSpaceOnUse"><stop stop-color="#071a24"/><stop offset="1" stop-color="#02090f"/></linearGradient><filter id="project-two-glow" x="-15" y="-15" width="248" height="306" filterUnits="userSpaceOnUse"><feGaussianBlur stdDeviation="5"/></filter></defs>
                <rect x="2" y="2" width="214" height="272" rx="14" fill="none" stroke="#00e7f2" stroke-opacity=".2" stroke-width="3" filter="url(#project-two-glow)"/><rect x=".8" y=".8" width="216.4" height="274.4" rx="14" fill="url(#project-two-fill)" stroke="url(#project-two-border)" stroke-width="1.4"/>
                <g transform="translate(35 39)" fill="none" stroke="#11e7f1" stroke-width="1.3"><circle r="17" stroke-opacity=".45"/><circle r="10"/><path d="M-10 0h20M0-10a15 15 0 0 1 0 20M0-10a15 15 0 0 0 0 20"/></g><text x="62" y="45" fill="#f4f5f6" font-family="Inter,Arial,sans-serif" font-size="17" font-weight="800">Проект 02</text><g fill="#10e7f1"><circle cx="190" cy="29" r="2.2"/><circle cx="198" cy="29" r="2.2"/><circle cx="206" cy="29" r="2.2"/></g>
                <rect x="62" y="65" width="120" height="6" rx="3" fill="#0e2c3a"/><rect x="62" y="65" width="78" height="6" rx="3" fill="#0be5ef"/>
                <rect x="17" y="88" width="184" height="91" rx="3" fill="#031018" stroke="#00dce9" stroke-opacity=".28"/><g stroke="#00dce9" stroke-opacity=".07"><path d="M23 111h172M23 134h172M23 157h172"/></g><polyline points="25,160 51,137 76,150 103,131 130,111 158,136 192,108" fill="none" stroke="#0ce6f0" stroke-width="2.2" stroke-linecap="round" stroke-linejoin="round"/><g fill="#0ce6f0"><circle cx="25" cy="160" r="2.5"/><circle cx="51" cy="137" r="2.5"/><circle cx="76" cy="150" r="2.5"/><circle cx="103" cy="131" r="2.5"/><circle cx="130" cy="111" r="2.5"/><circle cx="158" cy="136" r="2.5"/></g><circle cx="192" cy="108" r="5" fill="#ff9a16" opacity=".24"/><circle cx="192" cy="108" r="3" fill="#ff9a16"/>
                <path d="M17 189h184" stroke="#00dce9" stroke-opacity=".25"/><g stroke-linecap="round"><path d="M25 205h11" stroke="#0de7f1" stroke-width="6"/><path d="M25 225h11" stroke="#0de7f1" stroke-width="6"/><path d="M25 245h11" stroke="#ff9a16" stroke-width="6"/><path d="M45 205h64M45 225h92M45 245h84" stroke="#173847" stroke-width="6"/></g><g fill="#0bc6d6"><rect x="151" y="238" width="7" height="20"/><rect x="164" y="227" width="7" height="31"/><rect x="177" y="214" width="7" height="44"/><rect x="190" y="198" width="7" height="60"/></g>
              </svg><svg x="273" y="646" width="267" height="189" viewBox="0 0 267 189" overflow="visible">
                <defs><linearGradient id="project-three-border" x1="0" y1="0" x2="267" y2="189" gradientUnits="userSpaceOnUse"><stop stop-color="#56f4fc"/><stop offset=".68" stop-color="#a7eeee"/><stop offset="1" stop-color="#ff9a16"/></linearGradient><linearGradient id="project-three-fill" x1="30" y1="8" x2="238" y2="181" gradientUnits="userSpaceOnUse"><stop stop-color="#071a24"/><stop offset="1" stop-color="#02090f"/></linearGradient><filter id="project-three-glow" x="-15" y="-15" width="297" height="219" filterUnits="userSpaceOnUse"><feGaussianBlur stdDeviation="5"/></filter></defs>
                <rect x="2" y="2" width="263" height="185" rx="14" fill="none" stroke="#00e7f2" stroke-opacity=".2" stroke-width="3" filter="url(#project-three-glow)"/><rect x=".8" y=".8" width="265.4" height="187.4" rx="14" fill="url(#project-three-fill)" stroke="url(#project-three-border)" stroke-width="1.4"/>
                <g transform="translate(36 35)" fill="none" stroke="#11e7f1" stroke-width="1.3"><circle r="17" stroke-opacity=".45"/><circle r="10"/><path d="M-10 0h20M0-10a15 15 0 0 1 0 20M0-10a15 15 0 0 0 0 20"/></g><text x="63" y="41" fill="#f4f5f6" font-family="Inter,Arial,sans-serif" font-size="17" font-weight="800">Проект 03</text><g fill="#34505d"><circle cx="229" cy="29" r="2"/><circle cx="237" cy="29" r="2"/><circle cx="245" cy="29" r="2" fill="#0de7f1"/></g>
                <rect x="63" y="55" width="132" height="6" rx="3" fill="#0e2c3a"/><rect x="63" y="55" width="76" height="6" rx="3" fill="#0be5ef"/>
                <rect x="17" y="72" width="233" height="59" rx="3" fill="#031018" stroke="#00dce9" stroke-opacity=".28"/><g stroke="#00dce9" stroke-opacity=".07"><path d="M23 87h221M23 102h221M23 117h221"/></g><polyline points="28,119 55,101 82,111 110,94 138,107 166,90 196,102 239,80" fill="none" stroke="#0ce6f0" stroke-width="2.1" stroke-linecap="round" stroke-linejoin="round"/><g fill="#0ce6f0"><circle cx="28" cy="119" r="2.5"/><circle cx="55" cy="101" r="2.5"/><circle cx="82" cy="111" r="2.5"/><circle cx="110" cy="94" r="2.5"/><circle cx="138" cy="107" r="2.5"/><circle cx="166" cy="90" r="2.5"/><circle cx="196" cy="102" r="2.5"/></g><circle cx="239" cy="80" r="5" fill="#ff9a16" opacity=".24"/><circle cx="239" cy="80" r="3" fill="#ff9a16"/>
                <path d="M17 139h233" stroke="#00dce9" stroke-opacity=".25"/><g stroke-linecap="round"><path d="M25 154h10" stroke="#0de7f1" stroke-width="6"/><path d="M25 173h10" stroke="#ff9a16" stroke-width="6"/><path d="M44 154h72M44 173h92" stroke="#173847" stroke-width="6"/></g><g fill="#0bc6d6"><rect x="184" y="166" width="7" height="12"/><rect x="197" y="159" width="7" height="19"/><rect x="210" y="150" width="7" height="28"/><rect x="223" y="139" width="7" height="39"/></g>
              </svg></svg>
